<svg xmlns="http://www.w3.org/2000/svg" viewBox="0 0 240 240" fill="none" stroke="#171717" stroke-width="2.8" stroke-linecap="round" stroke-linejoin="round">
  <path d="M38 96h100a10 10 0 0 1 10 10v44a10 10 0 0 1 -10 10h-100a10 10 0 0 1 -10 -10v-44a10 10 0 0 1 10 -10z" fill="#5C6B7A" stroke-width="2.6"/>
  <path d="M148 112L196 112L208 160L148 160Z" fill="#2C4A6E" stroke-width="2.6"/>
  <path d="M160 120h28v20h-28z" fill="#F4F1EA" stroke-width="2"/>
  <path d="M56 172a16 16 0 1 0 32 0a16 16 0 1 0 -32 0" fill="none" stroke-width="2.4"/>
  <path d="M160 172a16 16 0 1 0 32 0a16 16 0 1 0 -32 0" fill="none" stroke-width="2.4"/>
</svg>
